solid
facet normal 0 0 1
outer loop
vertex 0.025 0 0.4
vertex 0.0242720989 0.005988757401 0.4
vertex 0.0194555859 0.001716067207 0.4
endloop
endfacet
facet normal 0 0 1
outer loop
vertex 0.02213078278 0.01162877695 0.4
vertex 0.01870595646 0.0165857527 0.4
vertex 0.01508713787 0.01197977639 0.4
endloop
endfacet
facet normal 0 0 1
outer loop
vertex 0.02213078278 0.01162877695 0.4
vertex 0.01508713787 0.01197977639 0.4
vertex 0.01802097729 0.007530455683 0.4
endloop
endfacet
facet normal 0 0 1
outer loop
vertex 0.01419465695 0.02057940024 0.4
vertex 0.008858908047 0.02337776183 0.4
vertex 0.01111907496 0.01645508803 0.4
endloop
endfacet
facet normal 0 0 1
outer loop
vertex 0.00300861897 0.02481830397 0.4
vertex -0.003016415722 0.02481735756 0.4
vertex -0.0008358535896 0.01903057605 0.4
endloop
endfacet
facet normal 0 0 1
outer loop
vertex 0.00300861897 0.02481830397 0.4
vertex -0.0008358535896 0.01903057605 0.4
vertex 0.005526055968 0.0185745399 0.4
endloop
endfacet
facet normal 0 0 1
outer loop
vertex -0.00886625195 0.02337497757 0.4
vertex -0.01420758456 0.02057047741 0.4
vertex -0.00677328905 0.01830891285 0.4
endloop
endfacet
facet normal 0 0 1
outer loop
vertex -0.01872157986 0.01656811539 0.4
vertex -0.02214173282 0.01160791402 0.4
vertex -0.01600370823 0.009999408333 0.4
endloop
endfacet
facet normal 0 0 1
outer loop
vertex -0.004680326149 0.01324284814 0.4
vertex -0.011700953 0.01490548177 0.4
vertex -0.008983081379 0.008336774706 0.4
endloop
endfacet
facet normal 0 0 1
outer loop
vertex -0.02427585695 0.00597350561 0.4
vertex -0.02499999877 -7.853981505e-06 0.4
vertex -0.01878084678 0.004702103442 0.4
endloop
endfacet
facet normal 0 0 1
outer loop
vertex -0.0242720989 -0.005988757401 0.4
vertex -0.02213443498 -0.01162182379 0.4
vertex -0.01721747534 -0.007603210415 0.4
endloop
endfacet
facet normal -0 0 1
outer loop
vertex -0.0242720989 -0.005988757401 0.4
vertex -0.01721747534 -0.007603210415 0.4
vertex -0.01877896775 -0.001279028064 0.4
endloop
endfacet
facet normal -0 0 1
outer loop
vertex -0.01871116611 -0.01657987524 0.4
vertex -0.01419465695 -0.02057940024 0.4
vertex -0.01443700895 -0.01289876933 0.4
endloop
endfacet
facet normal -0 0 1
outer loop
vertex -0.00885156327 -0.02338054379 0.4
vertex -0.003000821922 -0.02481924793 0.4
vertex -0.003416470389 -0.0186411783 0.4
endloop
endfacet
facet normal 0 0 1
outer loop
vertex -0.01016285179 -0.009217663428 0.4
vertex -0.009507207532 -0.01629910361 0.4
vertex -0.004072114651 -0.01155973812 0.4
endloop
endfacet
facet normal 0 -0 1
outer loop
vertex 0.003024212176 -0.0248164087 0.4
vertex 0.008873594979 -0.023372191 0.4
vertex 0.002521417334 -0.01935911076 0.4
endloop
endfacet
facet normal 0 -0 1
outer loop
vertex 0.01420758456 -0.02057047741 0.4
vertex 0.01871637391 -0.01657399613 0.4
vertex 0.01353197549 -0.01387255329 0.4
endloop
endfacet
facet normal -0 0 1
outer loop
vertex 0.002018622492 -0.01390181282 0.4
vertex 0.008113103528 -0.01723614511 0.4
vertex 0.007437494451 -0.01053822099 0.4
endloop
endfacet
facet normal 0 -0 1
outer loop
vertex 0.02213808499 -0.01161486948 0.4
vertex 0.02427397912 -0.005981131801 0.4
vertex 0.0174972257 -0.00939474932 0.4
endloop
endfacet
facet normal 0 0 1
outer loop
vertex 0.01285636641 -0.007174629163 0.4
vertex 0.01892818321 -0.003587314581 0.4
vertex 0.0133837691 -0.001871247374 0.4
endloop
endfacet
facet normal 0 0 1
outer loop
vertex 0.01391117179 0.003432134414 0.4
vertex 0.01097733238 0.007881455123 0.4
vertex 0.007636978667 0.00188386576 0.4
endloop
endfacet
facet normal 0 0 1
outer loop
vertex 0.008043492966 0.01233077583 0.4
vertex 0.001681583408 0.01278681199 0.4
vertex 0.004703139253 0.006333186469 0.4
endloop
endfacet
facet normal 0 0 1
outer loop
vertex -0.004680326149 0.01324284814 0.4
vertex -0.008983081379 0.008336774706 0.4
vertex -0.001658770305 0.006789222623 0.4
endloop
endfacet
facet normal 0 0 1
outer loop
vertex -0.01328583661 0.003430701273 0.4
vertex -0.0117243442 -0.002893481078 0.4
vertex -0.005961525534 0.001883149189 0.4
endloop
endfacet
facet normal 0 -0 1
outer loop
vertex 0.01285636641 -0.007174629163 0.4
vertex 0.0133837691 -0.001871247374 0.4
vertex 0.007109575975 -0.003419516029 0.4
endloop
endfacet
facet normal -0 0 1
outer loop
vertex -0.01016285179 -0.009217663428 0.4
vertex -0.004072114651 -0.01155973812 0.4
vertex -0.004400033127 -0.004441033161 0.4
endloop
endfacet
facet normal 0 -0 1
outer loop
vertex 0.002018622492 -0.01390181282 0.4
vertex 0.007437494451 -0.01053822099 0.4
vertex 0.001690704016 -0.006783107855 0.4
endloop
endfacet
facet normal 0 0 1
outer loop
vertex 0.02213078278 0.01162877695 0.4
vertex 0.01802097729 0.007530455683 0.4
vertex 0.0242720989 0.005988757401 0.4
endloop
endfacet
facet normal -0 0 1
outer loop
vertex 0.01391117179 0.003432134414 0.4
vertex 0.0194555859 0.001716067207 0.4
vertex 0.01802097729 0.007530455683 0.4
endloop
endfacet
facet normal 0 0 1
outer loop
vertex 0.0242720989 0.005988757401 0.4
vertex 0.01802097729 0.007530455683 0.4
vertex 0.0194555859 0.001716067207 0.4
endloop
endfacet
facet normal 0 0 1
outer loop
vertex 0.01419465695 0.02057940024 0.4
vertex 0.01111907496 0.01645508803 0.4
vertex 0.01870595646 0.0165857527 0.4
endloop
endfacet
facet normal -0 0 1
outer loop
vertex 0.008043492966 0.01233077583 0.4
vertex 0.01508713787 0.01197977639 0.4
vertex 0.01111907496 0.01645508803 0.4
endloop
endfacet
facet normal 0 0 1
outer loop
vertex 0.01870595646 0.0165857527 0.4
vertex 0.01111907496 0.01645508803 0.4
vertex 0.01508713787 0.01197977639 0.4
endloop
endfacet
facet normal 0 0 1
outer loop
vertex 0.008043492966 0.01233077583 0.4
vertex 0.01097733238 0.007881455123 0.4
vertex 0.01508713787 0.01197977639 0.4
endloop
endfacet
facet normal 0 -0 1
outer loop
vertex 0.01391117179 0.003432134414 0.4
vertex 0.01802097729 0.007530455683 0.4
vertex 0.01097733238 0.007881455123 0.4
endloop
endfacet
facet normal 0 0 1
outer loop
vertex 0.01508713787 0.01197977639 0.4
vertex 0.01097733238 0.007881455123 0.4
vertex 0.01802097729 0.007530455683 0.4
endloop
endfacet
facet normal 0 0 1
outer loop
vertex 0.00300861897 0.02481830397 0.4
vertex 0.005526055968 0.0185745399 0.4
vertex 0.008858908047 0.02337776183 0.4
endloop
endfacet
facet normal 0 -0 1
outer loop
vertex 0.008043492966 0.01233077583 0.4
vertex 0.01111907496 0.01645508803 0.4
vertex 0.005526055968 0.0185745399 0.4
endloop
endfacet
facet normal 0 0 1
outer loop
vertex 0.008858908047 0.02337776183 0.4
vertex 0.005526055968 0.0185745399 0.4
vertex 0.01111907496 0.01645508803 0.4
endloop
endfacet
facet normal -0 0 1
outer loop
vertex -0.00886625195 0.02337497757 0.4
vertex -0.00677328905 0.01830891285 0.4
vertex -0.003016415722 0.02481735756 0.4
endloop
endfacet
facet normal 0 -0 1
outer loop
vertex -0.004680326149 0.01324284814 0.4
vertex -0.0008358535896 0.01903057605 0.4
vertex -0.00677328905 0.01830891285 0.4
endloop
endfacet
facet normal 0 0 1
outer loop
vertex -0.003016415722 0.02481735756 0.4
vertex -0.00677328905 0.01830891285 0.4
vertex -0.0008358535896 0.01903057605 0.4
endloop
endfacet
facet normal -0 0 1
outer loop
vertex -0.004680326149 0.01324284814 0.4
vertex 0.001681583408 0.01278681199 0.4
vertex -0.0008358535896 0.01903057605 0.4
endloop
endfacet
facet normal 0 0 1
outer loop
vertex 0.008043492966 0.01233077583 0.4
vertex 0.005526055968 0.0185745399 0.4
vertex 0.001681583408 0.01278681199 0.4
endloop
endfacet
facet normal 0 0 1
outer loop
vertex -0.0008358535896 0.01903057605 0.4
vertex 0.001681583408 0.01278681199 0.4
vertex 0.005526055968 0.0185745399 0.4
endloop
endfacet
facet normal -0 0 1
outer loop
vertex -0.01872157986 0.01656811539 0.4
vertex -0.011700953 0.01490548177 0.4
vertex -0.01420758456 0.02057047741 0.4
endloop
endfacet
facet normal 0 0 1
outer loop
vertex -0.004680326149 0.01324284814 0.4
vertex -0.00677328905 0.01830891285 0.4
vertex -0.011700953 0.01490548177 0.4
endloop
endfacet
facet normal 0 0 1
outer loop
vertex -0.01420758456 0.02057047741 0.4
vertex -0.011700953 0.01490548177 0.4
vertex -0.00677328905 0.01830891285 0.4
endloop
endfacet
facet normal -0 0 1
outer loop
vertex -0.02427585695 0.00597350561 0.4
vertex -0.01878084678 0.004702103442 0.4
vertex -0.02214173282 0.01160791402 0.4
endloop
endfacet
facet normal 0 0 1
outer loop
vertex -0.01328583661 0.003430701273 0.4
vertex -0.01600370823 0.009999408333 0.4
vertex -0.01878084678 0.004702103442 0.4
endloop
endfacet
facet normal 0 0 1
outer loop
vertex -0.02214173282 0.01160791402 0.4
vertex -0.01878084678 0.004702103442 0.4
vertex -0.01600370823 0.009999408333 0.4
endloop
endfacet
facet normal 0 0 1
outer loop
vertex -0.01872157986 0.01656811539 0.4
vertex -0.01600370823 0.009999408333 0.4
vertex -0.011700953 0.01490548177 0.4
endloop
endfacet
facet normal 0 -0 1
outer loop
vertex -0.01328583661 0.003430701273 0.4
vertex -0.008983081379 0.008336774706 0.4
vertex -0.01600370823 0.009999408333 0.4
endloop
endfacet
facet normal 0 0 1
outer loop
vertex -0.011700953 0.01490548177 0.4
vertex -0.01600370823 0.009999408333 0.4
vertex -0.008983081379 0.008336774706 0.4
endloop
endfacet
facet normal 0 -0 1
outer loop
vertex -0.0242720989 -0.005988757401 0.4
vertex -0.01877896775 -0.001279028064 0.4
vertex -0.02499999877 -7.853981505e-06 0.4
endloop
endfacet
facet normal 0 0 1
outer loop
vertex -0.01328583661 0.003430701273 0.4
vertex -0.01878084678 0.004702103442 0.4
vertex -0.01877896775 -0.001279028064 0.4
endloop
endfacet
facet normal -0 0 1
outer loop
vertex -0.02499999877 -7.853981505e-06 0.4
vertex -0.01877896775 -0.001279028064 0.4
vertex -0.01878084678 0.004702103442 0.4
endloop
endfacet
facet normal 0 -0 1
outer loop
vertex -0.01871116611 -0.01657987524 0.4
vertex -0.01443700895 -0.01289876933 0.4
vertex -0.02213443498 -0.01162182379 0.4
endloop
endfacet
facet normal 0 0 1
outer loop
vertex -0.01016285179 -0.009217663428 0.4
vertex -0.01721747534 -0.007603210415 0.4
vertex -0.01443700895 -0.01289876933 0.4
endloop
endfacet
facet normal -0 0 1
outer loop
vertex -0.02213443498 -0.01162182379 0.4
vertex -0.01443700895 -0.01289876933 0.4
vertex -0.01721747534 -0.007603210415 0.4
endloop
endfacet
facet normal 0 0 1
outer loop
vertex -0.01016285179 -0.009217663428 0.4
vertex -0.0117243442 -0.002893481078 0.4
vertex -0.01721747534 -0.007603210415 0.4
endloop
endfacet
facet normal 0 0 1
outer loop
vertex -0.01328583661 0.003430701273 0.4
vertex -0.01877896775 -0.001279028064 0.4
vertex -0.0117243442 -0.002893481078 0.4
endloop
endfacet
facet normal 0 -0 1
outer loop
vertex -0.01721747534 -0.007603210415 0.4
vertex -0.0117243442 -0.002893481078 0.4
vertex -0.01877896775 -0.001279028064 0.4
endloop
endfacet
facet normal 0 0 1
outer loop
vertex -0.00885156327 -0.02338054379 0.4
vertex -0.009507207532 -0.01629910361 0.4
vertex -0.01419465695 -0.02057940024 0.4
endloop
endfacet
facet normal 0 0 1
outer loop
vertex -0.01016285179 -0.009217663428 0.4
vertex -0.01443700895 -0.01289876933 0.4
vertex -0.009507207532 -0.01629910361 0.4
endloop
endfacet
facet normal 0 -0 1
outer loop
vertex -0.01419465695 -0.02057940024 0.4
vertex -0.009507207532 -0.01629910361 0.4
vertex -0.01443700895 -0.01289876933 0.4
endloop
endfacet
facet normal 0 0 1
outer loop
vertex 0.003024212176 -0.0248164087 0.4
vertex 0.002521417334 -0.01935911076 0.4
vertex -0.003000821922 -0.02481924793 0.4
endloop
endfacet
facet normal 0 0 1
outer loop
vertex 0.002018622492 -0.01390181282 0.4
vertex -0.003416470389 -0.0186411783 0.4
vertex 0.002521417334 -0.01935911076 0.4
endloop
endfacet
facet normal 0 -0 1
outer loop
vertex -0.003000821922 -0.02481924793 0.4
vertex 0.002521417334 -0.01935911076 0.4
vertex -0.003416470389 -0.0186411783 0.4
endloop
endfacet
facet normal 0 -0 1
outer loop
vertex -0.00885156327 -0.02338054379 0.4
vertex -0.003416470389 -0.0186411783 0.4
vertex -0.009507207532 -0.01629910361 0.4
endloop
endfacet
facet normal 0 0 1
outer loop
vertex 0.002018622492 -0.01390181282 0.4
vertex -0.004072114651 -0.01155973812 0.4
vertex -0.003416470389 -0.0186411783 0.4
endloop
endfacet
facet normal -0 0 1
outer loop
vertex -0.009507207532 -0.01629910361 0.4
vertex -0.003416470389 -0.0186411783 0.4
vertex -0.004072114651 -0.01155973812 0.4
endloop
endfacet
facet normal 0 0 1
outer loop
vertex 0.01420758456 -0.02057047741 0.4
vertex 0.008113103528 -0.01723614511 0.4
vertex 0.008873594979 -0.023372191 0.4
endloop
endfacet
facet normal 0 0 1
outer loop
vertex 0.002018622492 -0.01390181282 0.4
vertex 0.002521417334 -0.01935911076 0.4
vertex 0.008113103528 -0.01723614511 0.4
endloop
endfacet
facet normal 0 0 1
outer loop
vertex 0.008873594979 -0.023372191 0.4
vertex 0.008113103528 -0.01723614511 0.4
vertex 0.002521417334 -0.01935911076 0.4
endloop
endfacet
facet normal 0 0 1
outer loop
vertex 0.02213808499 -0.01161486948 0.4
vertex 0.0174972257 -0.00939474932 0.4
vertex 0.01871637391 -0.01657399613 0.4
endloop
endfacet
facet normal 0 0 1
outer loop
vertex 0.01285636641 -0.007174629163 0.4
vertex 0.01353197549 -0.01387255329 0.4
vertex 0.0174972257 -0.00939474932 0.4
endloop
endfacet
facet normal 0 0 1
outer loop
vertex 0.01871637391 -0.01657399613 0.4
vertex 0.0174972257 -0.00939474932 0.4
vertex 0.01353197549 -0.01387255329 0.4
endloop
endfacet
facet normal 0 0 1
outer loop
vertex 0.01420758456 -0.02057047741 0.4
vertex 0.01353197549 -0.01387255329 0.4
vertex 0.008113103528 -0.01723614511 0.4
endloop
endfacet
facet normal 0 0 1
outer loop
vertex 0.01285636641 -0.007174629163 0.4
vertex 0.007437494451 -0.01053822099 0.4
vertex 0.01353197549 -0.01387255329 0.4
endloop
endfacet
facet normal 0 -0 1
outer loop
vertex 0.008113103528 -0.01723614511 0.4
vertex 0.01353197549 -0.01387255329 0.4
vertex 0.007437494451 -0.01053822099 0.4
endloop
endfacet
facet normal 0 0 1
outer loop
vertex 0.025 0 0.4
vertex 0.01892818321 -0.003587314581 0.4
vertex 0.02427397912 -0.005981131801 0.4
endloop
endfacet
facet normal -0 0 1
outer loop
vertex 0.01285636641 -0.007174629163 0.4
vertex 0.0174972257 -0.00939474932 0.4
vertex 0.01892818321 -0.003587314581 0.4
endloop
endfacet
facet normal 0 0 1
outer loop
vertex 0.02427397912 -0.005981131801 0.4
vertex 0.01892818321 -0.003587314581 0.4
vertex 0.0174972257 -0.00939474932 0.4
endloop
endfacet
facet normal 0 0 1
outer loop
vertex 0.025 0 0.4
vertex 0.0194555859 0.001716067207 0.4
vertex 0.01892818321 -0.003587314581 0.4
endloop
endfacet
facet normal 0 0 1
outer loop
vertex 0.01391117179 0.003432134414 0.4
vertex 0.0133837691 -0.001871247374 0.4
vertex 0.0194555859 0.001716067207 0.4
endloop
endfacet
facet normal 0 -0 1
outer loop
vertex 0.01892818321 -0.003587314581 0.4
vertex 0.0194555859 0.001716067207 0.4
vertex 0.0133837691 -0.001871247374 0.4
endloop
endfacet
facet normal 0 0 1
outer loop
vertex 0.008043492966 0.01233077583 0.4
vertex 0.004703139253 0.006333186469 0.4
vertex 0.01097733238 0.007881455123 0.4
endloop
endfacet
facet normal 0 0 1
outer loop
vertex 0.00136278554 0.0003355971055 0.4
vertex 0.007636978667 0.00188386576 0.4
vertex 0.004703139253 0.006333186469 0.4
endloop
endfacet
facet normal 0 0 1
outer loop
vertex 0.01097733238 0.007881455123 0.4
vertex 0.004703139253 0.006333186469 0.4
vertex 0.007636978667 0.00188386576 0.4
endloop
endfacet
facet normal 0 0 1
outer loop
vertex -0.004680326149 0.01324284814 0.4
vertex -0.001658770305 0.006789222623 0.4
vertex 0.001681583408 0.01278681199 0.4
endloop
endfacet
facet normal 0 -0 1
outer loop
vertex 0.00136278554 0.0003355971055 0.4
vertex 0.004703139253 0.006333186469 0.4
vertex -0.001658770305 0.006789222623 0.4
endloop
endfacet
facet normal 0 0 1
outer loop
vertex 0.001681583408 0.01278681199 0.4
vertex -0.001658770305 0.006789222623 0.4
vertex 0.004703139253 0.006333186469 0.4
endloop
endfacet
facet normal -0 0 1
outer loop
vertex -0.01328583661 0.003430701273 0.4
vertex -0.005961525534 0.001883149189 0.4
vertex -0.008983081379 0.008336774706 0.4
endloop
endfacet
facet normal 0 0 1
outer loop
vertex 0.00136278554 0.0003355971055 0.4
vertex -0.001658770305 0.006789222623 0.4
vertex -0.005961525534 0.001883149189 0.4
endloop
endfacet
facet normal 0 0 1
outer loop
vertex -0.008983081379 0.008336774706 0.4
vertex -0.005961525534 0.001883149189 0.4
vertex -0.001658770305 0.006789222623 0.4
endloop
endfacet
facet normal 0 -0 1
outer loop
vertex -0.01016285179 -0.009217663428 0.4
vertex -0.004400033127 -0.004441033161 0.4
vertex -0.0117243442 -0.002893481078 0.4
endloop
endfacet
facet normal 0 0 1
outer loop
vertex 0.00136278554 0.0003355971055 0.4
vertex -0.005961525534 0.001883149189 0.4
vertex -0.004400033127 -0.004441033161 0.4
endloop
endfacet
facet normal -0 0 1
outer loop
vertex -0.0117243442 -0.002893481078 0.4
vertex -0.004400033127 -0.004441033161 0.4
vertex -0.005961525534 0.001883149189 0.4
endloop
endfacet
facet normal 0 0 1
outer loop
vertex 0.01391117179 0.003432134414 0.4
vertex 0.007636978667 0.00188386576 0.4
vertex 0.0133837691 -0.001871247374 0.4
endloop
endfacet
facet normal -0 0 1
outer loop
vertex 0.00136278554 0.0003355971055 0.4
vertex 0.007109575975 -0.003419516029 0.4
vertex 0.007636978667 0.00188386576 0.4
endloop
endfacet
facet normal 0 0 1
outer loop
vertex 0.0133837691 -0.001871247374 0.4
vertex 0.007636978667 0.00188386576 0.4
vertex 0.007109575975 -0.003419516029 0.4
endloop
endfacet
facet normal 0 0 1
outer loop
vertex 0.002018622492 -0.01390181282 0.4
vertex 0.001690704016 -0.006783107855 0.4
vertex -0.004072114651 -0.01155973812 0.4
endloop
endfacet
facet normal 0 0 1
outer loop
vertex 0.00136278554 0.0003355971055 0.4
vertex -0.004400033127 -0.004441033161 0.4
vertex 0.001690704016 -0.006783107855 0.4
endloop
endfacet
facet normal 0 -0 1
outer loop
vertex -0.004072114651 -0.01155973812 0.4
vertex 0.001690704016 -0.006783107855 0.4
vertex -0.004400033127 -0.004441033161 0.4
endloop
endfacet
facet normal 0 0 1
outer loop
vertex 0.01285636641 -0.007174629163 0.4
vertex 0.007109575975 -0.003419516029 0.4
vertex 0.007437494451 -0.01053822099 0.4
endloop
endfacet
facet normal 0 0 1
outer loop
vertex 0.00136278554 0.0003355971055 0.4
vertex 0.001690704016 -0.006783107855 0.4
vertex 0.007109575975 -0.003419516029 0.4
endloop
endfacet
facet normal 0 0 1
outer loop
vertex 0.007437494451 -0.01053822099 0.4
vertex 0.007109575975 -0.003419516029 0.4
vertex 0.001690704016 -0.006783107855 0.4
endloop
endfacet
endsolid
