solid
facet normal 0 -0 -1
outer loop
vertex 0.02213078278 0.01162877695 0
vertex 0.0242720989 0.005988757401 0
vertex 0.01802097731 0.007530455625 0
endloop
endfacet
facet normal 0 -0 -1
outer loop
vertex 0.01419465695 0.02057940024 0
vertex 0.01870595646 0.0165857527 0
vertex 0.01111907495 0.01645508799 0
endloop
endfacet
facet normal -0 0 -1
outer loop
vertex 0.02213078278 0.01162877695 0
vertex 0.01802097731 0.007530455625 0
vertex 0.01508713786 0.01197977635 0
endloop
endfacet
facet normal 0 0 -1
outer loop
vertex 0.00300861897 0.02481830397 0
vertex 0.008858908047 0.02337776183 0
vertex 0.005526055957 0.01857453986 0
endloop
endfacet
facet normal 0 0 -1
outer loop
vertex -0.00886625195 0.02337497757 0
vertex -0.003016415722 0.02481735756 0
vertex -0.006773289055 0.01830891285 0
endloop
endfacet
facet normal 0 -0 -1
outer loop
vertex 0.00300861897 0.02481830397 0
vertex 0.005526055957 0.01857453986 0
vertex -0.0008358535947 0.01903057605 0
endloop
endfacet
facet normal 0 0 -1
outer loop
vertex -0.01872157986 0.01656811539 0
vertex -0.01420758456 0.02057047741 0
vertex -0.01170095301 0.01490548176 0
endloop
endfacet
facet normal 0 0 -1
outer loop
vertex -0.02427585695 0.00597350561 0
vertex -0.02214173282 0.01160791402 0
vertex -0.01878084677 0.004702103408 0
endloop
endfacet
facet normal 0 0 -1
outer loop
vertex -0.0242720989 -0.005988757401 0
vertex -0.02499999877 -7.853981505e-06 0
vertex -0.01877896774 -0.001279028097 0
endloop
endfacet
facet normal 0 0 -1
outer loop
vertex -0.01872157986 0.01656811539 0
vertex -0.01170095301 0.01490548176 0
vertex -0.01600370822 0.0099994083 0
endloop
endfacet
facet normal 0 0 -1
outer loop
vertex -0.01871116611 -0.01657987524 0
vertex -0.02213443498 -0.01162182379 0
vertex -0.01443700899 -0.01289876925 0
endloop
endfacet
facet normal 0 0 -1
outer loop
vertex -0.0242720989 -0.005988757401 0
vertex -0.01877896774 -0.001279028097 0
vertex -0.01721747539 -0.007603210336 0
endloop
endfacet
facet normal 0 0 -1
outer loop
vertex -0.00885156327 -0.02338054379 0
vertex -0.01419465695 -0.02057940024 0
vertex -0.009507207574 -0.01629910353 0
endloop
endfacet
facet normal -0 0 -1
outer loop
vertex 0.003024212176 -0.0248164087 0
vertex -0.003000821922 -0.02481924793 0
vertex 0.002521417355 -0.01935911079 0
endloop
endfacet
facet normal -0 0 -1
outer loop
vertex 0.01420758456 -0.02057047741 0
vertex 0.008873594979 -0.023372191 0
vertex 0.008113103548 -0.01723614515 0
endloop
endfacet
facet normal 0 0 -1
outer loop
vertex -0.00885156327 -0.02338054379 0
vertex -0.009507207574 -0.01629910353 0
vertex -0.003416470368 -0.01864117834 0
endloop
endfacet
facet normal -0 0 -1
outer loop
vertex 0.02213808499 -0.01161486948 0
vertex 0.01871637391 -0.01657399613 0
vertex 0.01749722562 -0.009394749349 0
endloop
endfacet
facet normal 0 0 -1
outer loop
vertex 0.025 0 0
vertex 0.02427397912 -0.005981131801 0
vertex 0.01892818312 -0.003587314611 0
endloop
endfacet
facet normal 0 0 -1
outer loop
vertex 0.01420758456 -0.02057047741 0
vertex 0.008113103548 -0.01723614515 0
vertex 0.01353197541 -0.01387255332 0
endloop
endfacet
facet normal -0 0 -1
outer loop
vertex 0.025 0 0
vertex 0.01892818312 -0.003587314611 0
vertex 0.01945558592 0.001716067149 0
endloop
endfacet
facet normal 0 0 -1
outer loop
vertex -0.00468032616 0.01324284813 0
vertex 0.001681583392 0.01278681194 0
vertex -0.001658770349 0.006789222659 0
endloop
endfacet
facet normal 0 -0 -1
outer loop
vertex 0.008043492943 0.01233077574 0
vertex 0.01097733239 0.007881455021 0
vertex 0.004703139202 0.006333186466 0
endloop
endfacet
facet normal 0 0 -1
outer loop
vertex -0.01328583659 0.003430701207 0
vertex -0.008983081375 0.008336774669 0
vertex -0.005961525565 0.001883149197 0
endloop
endfacet
facet normal 0 0 -1
outer loop
vertex -0.01016285188 -0.00921766327 0
vertex -0.01172434423 -0.002893481032 0
vertex -0.004400033209 -0.004441033041 0
endloop
endfacet
facet normal 0 0 -1
outer loop
vertex 0.002018622533 -0.01390181289 0
vertex -0.004072114672 -0.01155973808 0
vertex 0.001690703997 -0.00678310785 0
endloop
endfacet
facet normal 0 0 -1
outer loop
vertex 0.01391117184 0.003432134297 0
vertex 0.01338376905 -0.001871247462 0
vertex 0.007636978653 0.001883865743 0
endloop
endfacet
facet normal -0 0 -1
outer loop
vertex 0.01285636625 -0.007174629222 0
vertex 0.007437494391 -0.01053822106 0
vertex 0.007109575854 -0.003419516017 0
endloop
endfacet
facet normal 0 0 -1
outer loop
vertex 0.025 0 0
vertex 0.01945558592 0.001716067149 0
vertex 0.0242720989 0.005988757401 0
endloop
endfacet
facet normal 0 0 -1
outer loop
vertex 0.01391117184 0.003432134297 0
vertex 0.01802097731 0.007530455625 0
vertex 0.01945558592 0.001716067149 0
endloop
endfacet
facet normal -0 0 -1
outer loop
vertex 0.0242720989 0.005988757401 0
vertex 0.01945558592 0.001716067149 0
vertex 0.01802097731 0.007530455625 0
endloop
endfacet
facet normal 0 0 -1
outer loop
vertex 0.02213078278 0.01162877695 0
vertex 0.01508713786 0.01197977635 0
vertex 0.01870595646 0.0165857527 0
endloop
endfacet
facet normal 0 0 -1
outer loop
vertex 0.008043492943 0.01233077574 0
vertex 0.01111907495 0.01645508799 0
vertex 0.01508713786 0.01197977635 0
endloop
endfacet
facet normal 0 0 -1
outer loop
vertex 0.01870595646 0.0165857527 0
vertex 0.01508713786 0.01197977635 0
vertex 0.01111907495 0.01645508799 0
endloop
endfacet
facet normal 0 0 -1
outer loop
vertex 0.01391117184 0.003432134297 0
vertex 0.01097733239 0.007881455021 0
vertex 0.01802097731 0.007530455625 0
endloop
endfacet
facet normal 0 0 -1
outer loop
vertex 0.008043492943 0.01233077574 0
vertex 0.01508713786 0.01197977635 0
vertex 0.01097733239 0.007881455021 0
endloop
endfacet
facet normal 0 0 -1
outer loop
vertex 0.01802097731 0.007530455625 0
vertex 0.01097733239 0.007881455021 0
vertex 0.01508713786 0.01197977635 0
endloop
endfacet
facet normal -0 0 -1
outer loop
vertex 0.01419465695 0.02057940024 0
vertex 0.01111907495 0.01645508799 0
vertex 0.008858908047 0.02337776183 0
endloop
endfacet
facet normal 0 0 -1
outer loop
vertex 0.008043492943 0.01233077574 0
vertex 0.005526055957 0.01857453986 0
vertex 0.01111907495 0.01645508799 0
endloop
endfacet
facet normal 0 -0 -1
outer loop
vertex 0.008858908047 0.02337776183 0
vertex 0.01111907495 0.01645508799 0
vertex 0.005526055957 0.01857453986 0
endloop
endfacet
facet normal 0 0 -1
outer loop
vertex 0.00300861897 0.02481830397 0
vertex -0.0008358535947 0.01903057605 0
vertex -0.003016415722 0.02481735756 0
endloop
endfacet
facet normal 0 0 -1
outer loop
vertex -0.00468032616 0.01324284813 0
vertex -0.006773289055 0.01830891285 0
vertex -0.0008358535947 0.01903057605 0
endloop
endfacet
facet normal 0 -0 -1
outer loop
vertex -0.003016415722 0.02481735756 0
vertex -0.0008358535947 0.01903057605 0
vertex -0.006773289055 0.01830891285 0
endloop
endfacet
facet normal 0 0 -1
outer loop
vertex 0.008043492943 0.01233077574 0
vertex 0.001681583392 0.01278681194 0
vertex 0.005526055957 0.01857453986 0
endloop
endfacet
facet normal 0 0 -1
outer loop
vertex -0.00468032616 0.01324284813 0
vertex -0.0008358535947 0.01903057605 0
vertex 0.001681583392 0.01278681194 0
endloop
endfacet
facet normal -0 0 -1
outer loop
vertex 0.005526055957 0.01857453986 0
vertex 0.001681583392 0.01278681194 0
vertex -0.0008358535947 0.01903057605 0
endloop
endfacet
facet normal 0 -0 -1
outer loop
vertex -0.00886625195 0.02337497757 0
vertex -0.006773289055 0.01830891285 0
vertex -0.01420758456 0.02057047741 0
endloop
endfacet
facet normal 0 0 -1
outer loop
vertex -0.00468032616 0.01324284813 0
vertex -0.01170095301 0.01490548176 0
vertex -0.006773289055 0.01830891285 0
endloop
endfacet
facet normal 0 0 -1
outer loop
vertex -0.01420758456 0.02057047741 0
vertex -0.006773289055 0.01830891285 0
vertex -0.01170095301 0.01490548176 0
endloop
endfacet
facet normal 0 -0 -1
outer loop
vertex -0.01872157986 0.01656811539 0
vertex -0.01600370822 0.0099994083 0
vertex -0.02214173282 0.01160791402 0
endloop
endfacet
facet normal 0 0 -1
outer loop
vertex -0.01328583659 0.003430701207 0
vertex -0.01878084677 0.004702103408 0
vertex -0.01600370822 0.0099994083 0
endloop
endfacet
facet normal 0 0 -1
outer loop
vertex -0.02214173282 0.01160791402 0
vertex -0.01600370822 0.0099994083 0
vertex -0.01878084677 0.004702103408 0
endloop
endfacet
facet normal 0 -0 -1
outer loop
vertex -0.02427585695 0.00597350561 0
vertex -0.01878084677 0.004702103408 0
vertex -0.02499999877 -7.853981505e-06 0
endloop
endfacet
facet normal -0 0 -1
outer loop
vertex -0.01328583659 0.003430701207 0
vertex -0.01877896774 -0.001279028097 0
vertex -0.01878084677 0.004702103408 0
endloop
endfacet
facet normal 0 0 -1
outer loop
vertex -0.02499999877 -7.853981505e-06 0
vertex -0.01878084677 0.004702103408 0
vertex -0.01877896774 -0.001279028097 0
endloop
endfacet
facet normal -0 0 -1
outer loop
vertex -0.00468032616 0.01324284813 0
vertex -0.008983081375 0.008336774669 0
vertex -0.01170095301 0.01490548176 0
endloop
endfacet
facet normal 0 0 -1
outer loop
vertex -0.01328583659 0.003430701207 0
vertex -0.01600370822 0.0099994083 0
vertex -0.008983081375 0.008336774669 0
endloop
endfacet
facet normal 0 -0 -1
outer loop
vertex -0.01170095301 0.01490548176 0
vertex -0.008983081375 0.008336774669 0
vertex -0.01600370822 0.0099994083 0
endloop
endfacet
facet normal 0 0 -1
outer loop
vertex -0.0242720989 -0.005988757401 0
vertex -0.01721747539 -0.007603210336 0
vertex -0.02213443498 -0.01162182379 0
endloop
endfacet
facet normal -0 0 -1
outer loop
vertex -0.01016285188 -0.00921766327 0
vertex -0.01443700899 -0.01289876925 0
vertex -0.01721747539 -0.007603210336 0
endloop
endfacet
facet normal 0 0 -1
outer loop
vertex -0.02213443498 -0.01162182379 0
vertex -0.01721747539 -0.007603210336 0
vertex -0.01443700899 -0.01289876925 0
endloop
endfacet
facet normal 0 -0 -1
outer loop
vertex -0.01328583659 0.003430701207 0
vertex -0.01172434423 -0.002893481032 0
vertex -0.01877896774 -0.001279028097 0
endloop
endfacet
facet normal 0 0 -1
outer loop
vertex -0.01016285188 -0.00921766327 0
vertex -0.01721747539 -0.007603210336 0
vertex -0.01172434423 -0.002893481032 0
endloop
endfacet
facet normal 0 0 -1
outer loop
vertex -0.01877896774 -0.001279028097 0
vertex -0.01172434423 -0.002893481032 0
vertex -0.01721747539 -0.007603210336 0
endloop
endfacet
facet normal 0 0 -1
outer loop
vertex -0.01871116611 -0.01657987524 0
vertex -0.01443700899 -0.01289876925 0
vertex -0.01419465695 -0.02057940024 0
endloop
endfacet
facet normal 0 -0 -1
outer loop
vertex -0.01016285188 -0.00921766327 0
vertex -0.009507207574 -0.01629910353 0
vertex -0.01443700899 -0.01289876925 0
endloop
endfacet
facet normal 0 0 -1
outer loop
vertex -0.01419465695 -0.02057940024 0
vertex -0.01443700899 -0.01289876925 0
vertex -0.009507207574 -0.01629910353 0
endloop
endfacet
facet normal 0 0 -1
outer loop
vertex -0.00885156327 -0.02338054379 0
vertex -0.003416470368 -0.01864117834 0
vertex -0.003000821922 -0.02481924793 0
endloop
endfacet
facet normal 0 -0 -1
outer loop
vertex 0.002018622533 -0.01390181289 0
vertex 0.002521417355 -0.01935911079 0
vertex -0.003416470368 -0.01864117834 0
endloop
endfacet
facet normal 0 0 -1
outer loop
vertex -0.003000821922 -0.02481924793 0
vertex -0.003416470368 -0.01864117834 0
vertex 0.002521417355 -0.01935911079 0
endloop
endfacet
facet normal 0 0 -1
outer loop
vertex 0.003024212176 -0.0248164087 0
vertex 0.002521417355 -0.01935911079 0
vertex 0.008873594979 -0.023372191 0
endloop
endfacet
facet normal 0 0 -1
outer loop
vertex 0.002018622533 -0.01390181289 0
vertex 0.008113103548 -0.01723614515 0
vertex 0.002521417355 -0.01935911079 0
endloop
endfacet
facet normal 0 0 -1
outer loop
vertex 0.008873594979 -0.023372191 0
vertex 0.002521417355 -0.01935911079 0
vertex 0.008113103548 -0.01723614515 0
endloop
endfacet
facet normal 0 0 -1
outer loop
vertex -0.01016285188 -0.00921766327 0
vertex -0.004072114672 -0.01155973808 0
vertex -0.009507207574 -0.01629910353 0
endloop
endfacet
facet normal -0 0 -1
outer loop
vertex 0.002018622533 -0.01390181289 0
vertex -0.003416470368 -0.01864117834 0
vertex -0.004072114672 -0.01155973808 0
endloop
endfacet
facet normal 0 0 -1
outer loop
vertex -0.009507207574 -0.01629910353 0
vertex -0.004072114672 -0.01155973808 0
vertex -0.003416470368 -0.01864117834 0
endloop
endfacet
facet normal 0 0 -1
outer loop
vertex 0.01420758456 -0.02057047741 0
vertex 0.01353197541 -0.01387255332 0
vertex 0.01871637391 -0.01657399613 0
endloop
endfacet
facet normal 0 0 -1
outer loop
vertex 0.01285636625 -0.007174629222 0
vertex 0.01749722562 -0.009394749349 0
vertex 0.01353197541 -0.01387255332 0
endloop
endfacet
facet normal 0 0 -1
outer loop
vertex 0.01871637391 -0.01657399613 0
vertex 0.01353197541 -0.01387255332 0
vertex 0.01749722562 -0.009394749349 0
endloop
endfacet
facet normal 0 0 -1
outer loop
vertex 0.02213808499 -0.01161486948 0
vertex 0.01749722562 -0.009394749349 0
vertex 0.02427397912 -0.005981131801 0
endloop
endfacet
facet normal 0 0 -1
outer loop
vertex 0.01285636625 -0.007174629222 0
vertex 0.01892818312 -0.003587314611 0
vertex 0.01749722562 -0.009394749349 0
endloop
endfacet
facet normal -0 0 -1
outer loop
vertex 0.02427397912 -0.005981131801 0
vertex 0.01749722562 -0.009394749349 0
vertex 0.01892818312 -0.003587314611 0
endloop
endfacet
facet normal 0 0 -1
outer loop
vertex 0.002018622533 -0.01390181289 0
vertex 0.007437494391 -0.01053822106 0
vertex 0.008113103548 -0.01723614515 0
endloop
endfacet
facet normal 0 -0 -1
outer loop
vertex 0.01285636625 -0.007174629222 0
vertex 0.01353197541 -0.01387255332 0
vertex 0.007437494391 -0.01053822106 0
endloop
endfacet
facet normal 0 0 -1
outer loop
vertex 0.008113103548 -0.01723614515 0
vertex 0.007437494391 -0.01053822106 0
vertex 0.01353197541 -0.01387255332 0
endloop
endfacet
facet normal 0 0 -1
outer loop
vertex 0.01285636625 -0.007174629222 0
vertex 0.01338376905 -0.001871247462 0
vertex 0.01892818312 -0.003587314611 0
endloop
endfacet
facet normal 0 -0 -1
outer loop
vertex 0.01391117184 0.003432134297 0
vertex 0.01945558592 0.001716067149 0
vertex 0.01338376905 -0.001871247462 0
endloop
endfacet
facet normal 0 0 -1
outer loop
vertex 0.01892818312 -0.003587314611 0
vertex 0.01338376905 -0.001871247462 0
vertex 0.01945558592 0.001716067149 0
endloop
endfacet
facet normal -0 0 -1
outer loop
vertex 0.008043492943 0.01233077574 0
vertex 0.004703139202 0.006333186466 0
vertex 0.001681583392 0.01278681194 0
endloop
endfacet
facet normal 0 0 -1
outer loop
vertex 0.001362785461 0.0003355971884 0
vertex -0.001658770349 0.006789222659 0
vertex 0.004703139202 0.006333186466 0
endloop
endfacet
facet normal 0 -0 -1
outer loop
vertex 0.001681583392 0.01278681194 0
vertex 0.004703139202 0.006333186466 0
vertex -0.001658770349 0.006789222659 0
endloop
endfacet
facet normal -0 0 -1
outer loop
vertex 0.01391117184 0.003432134297 0
vertex 0.007636978653 0.001883865743 0
vertex 0.01097733239 0.007881455021 0
endloop
endfacet
facet normal 0 0 -1
outer loop
vertex 0.001362785461 0.0003355971884 0
vertex 0.004703139202 0.006333186466 0
vertex 0.007636978653 0.001883865743 0
endloop
endfacet
facet normal 0 0 -1
outer loop
vertex 0.01097733239 0.007881455021 0
vertex 0.007636978653 0.001883865743 0
vertex 0.004703139202 0.006333186466 0
endloop
endfacet
facet normal 0 -0 -1
outer loop
vertex -0.00468032616 0.01324284813 0
vertex -0.001658770349 0.006789222659 0
vertex -0.008983081375 0.008336774669 0
endloop
endfacet
facet normal 0 0 -1
outer loop
vertex 0.001362785461 0.0003355971884 0
vertex -0.005961525565 0.001883149197 0
vertex -0.001658770349 0.006789222659 0
endloop
endfacet
facet normal 0 0 -1
outer loop
vertex -0.008983081375 0.008336774669 0
vertex -0.001658770349 0.006789222659 0
vertex -0.005961525565 0.001883149197 0
endloop
endfacet
facet normal 0 0 -1
outer loop
vertex -0.01328583659 0.003430701207 0
vertex -0.005961525565 0.001883149197 0
vertex -0.01172434423 -0.002893481032 0
endloop
endfacet
facet normal -0 0 -1
outer loop
vertex 0.001362785461 0.0003355971884 0
vertex -0.004400033209 -0.004441033041 0
vertex -0.005961525565 0.001883149197 0
endloop
endfacet
facet normal 0 0 -1
outer loop
vertex -0.01172434423 -0.002893481032 0
vertex -0.005961525565 0.001883149197 0
vertex -0.004400033209 -0.004441033041 0
endloop
endfacet
facet normal 0 0 -1
outer loop
vertex -0.01016285188 -0.00921766327 0
vertex -0.004400033209 -0.004441033041 0
vertex -0.004072114672 -0.01155973808 0
endloop
endfacet
facet normal 0 -0 -1
outer loop
vertex 0.001362785461 0.0003355971884 0
vertex 0.001690703997 -0.00678310785 0
vertex -0.004400033209 -0.004441033041 0
endloop
endfacet
facet normal 0 0 -1
outer loop
vertex -0.004072114672 -0.01155973808 0
vertex -0.004400033209 -0.004441033041 0
vertex 0.001690703997 -0.00678310785 0
endloop
endfacet
facet normal 0 0 -1
outer loop
vertex 0.01285636625 -0.007174629222 0
vertex 0.007109575854 -0.003419516017 0
vertex 0.01338376905 -0.001871247462 0
endloop
endfacet
facet normal 0 0 -1
outer loop
vertex 0.001362785461 0.0003355971884 0
vertex 0.007636978653 0.001883865743 0
vertex 0.007109575854 -0.003419516017 0
endloop
endfacet
facet normal -0 0 -1
outer loop
vertex 0.01338376905 -0.001871247462 0
vertex 0.007109575854 -0.003419516017 0
vertex 0.007636978653 0.001883865743 0
endloop
endfacet
facet normal 0 0 -1
outer loop
vertex 0.002018622533 -0.01390181289 0
vertex 0.001690703997 -0.00678310785 0
vertex 0.007437494391 -0.01053822106 0
endloop
endfacet
facet normal 0 0 -1
outer loop
vertex 0.001362785461 0.0003355971884 0
vertex 0.007109575854 -0.003419516017 0
vertex 0.001690703997 -0.00678310785 0
endloop
endfacet
facet normal 0 0 -1
outer loop
vertex 0.007437494391 -0.01053822106 0
vertex 0.001690703997 -0.00678310785 0
vertex 0.007109575854 -0.003419516017 0
endloop
endfacet
endsolid
